<svg width="52" height="20" viewBox="0 0 52 20" fill="none" xmlns="http://www.w3.org/2000/svg">
<path fill-rule="evenodd" clip-rule="evenodd" d="M9.63343 12.4459C9.50836 12.1364 9.38329 10.9803 9.38329 10.2992C9.38329 6.6244 11.9899 3.44482 18.8291 3.44482H22.4152C22.4152 3.44482 21.6069 3.79608 19.8296 5.09619C18.053 6.39696 9.63343 12.4459 9.63343 12.4459ZM37.7826 9.68209L50.7112 0H44.2887L34.5717 7.36926L32.0006 5.69768H25.8973L31.4437 9.7642L27.1486 13.3563C24.9587 15.1934 21.8906 17.7617 17.3447 17.7617C15.5517 17.7617 13.0109 17.3615 11.593 15.8125L32.5495 0H19.8717C12.115 0 8.15302 4.43798 8.15302 9.92973C8.15302 11.065 8.40315 12.4889 8.69475 13.1497L0 19.5291H6.65156L10.6761 16.515C12.1354 18.3111 15.2436 19.9826 18.5348 19.9996C23.9568 20.0452 28.8495 16.4746 30.5893 15.1106L34.5302 12.0145L44.81 19.5291H52L37.7826 9.68209Z" fill="#FFCF01"/>
</svg>
