<!-- <svg class="MuiSvgIcon-root MuiSvgIcon-fontSizeMedium mui-vubbuv" focusable="false" aria-hidden="true" viewBox="0 0 24 24" data-testid="image:language-icon" fill="currentColor" xmlns="http://www.w3.org/2000/svg"><path d="M11.5 2C9.62108 2 7.78435 2.55717 6.22209 3.60104C4.65982 4.64491 3.44218 6.12861 2.72315 7.86451C2.00412 9.60041 1.81598 11.5105 2.18254 13.3534C2.5491 15.1962 3.45389 16.8889 4.78249 18.2175C6.11109 19.5461 7.80383 20.4509 9.64665 20.8175C11.4895 21.184 13.3996 20.9959 15.1355 20.2769C16.8714 19.5578 18.3551 18.3402 19.399 16.7779C20.4428 15.2157 21 13.3789 21 11.5C21 8.98044 19.9991 6.56408 18.2175 4.78249C16.4359 3.00089 14.0196 2 11.5 2ZM15.888 10H18.849C19.1216 11.3343 19.023 12.7178 18.564 14H15.888C15.9629 13.336 16.0003 12.6682 16 12C16.0003 11.3318 15.9629 10.664 15.888 10ZM18.564 9H15.744C15.5062 7.34122 14.8738 5.76373 13.9 4.4C14.9744 4.76457 15.9523 5.36787 16.7601 6.16458C17.5679 6.9613 18.1846 7.93071 18.564 9ZM13.283 18.778C12.8616 18.8818 12.432 18.9487 11.999 18.978V15H14.725C14.5091 16.3449 14.0186 17.6309 13.284 18.778H13.283ZM9.716 18.778C8.98108 17.631 8.49022 16.345 8.274 15H11V18.975C10.5671 18.9467 10.1375 18.8808 9.716 18.778ZM14.726 9H12V4.094C13.154 4.527 14.237 6.413 14.726 9ZM11 4.094V9H8.274C8.763 6.413 9.846 4.527 11 4.094ZM11 10V14H8.119C7.96032 12.6714 7.96032 11.3286 8.119 10H11ZM12 14V10H14.881C14.9607 10.6637 15.0005 11.3315 15 12C15.0005 12.6685 14.9607 13.3363 14.881 14H12ZM9.1 4.4C8.12618 5.76373 7.49381 7.34122 7.256 9H4.436C4.81538 7.93071 5.43214 6.9613 6.23994 6.16458C7.04774 5.36787 8.02558 4.76457 9.1 4.4ZM7.112 14H4.436C3.97699 12.7178 3.87842 11.3343 4.151 10H7.112C6.96332 11.3292 6.96332 12.6708 7.112 14ZM4.869 15H7.256C7.44408 16.1286 7.78593 17.2262 8.272 18.262C6.81746 17.5674 5.62453 16.4239 4.869 15ZM14.728 18.262C15.2141 17.2262 15.5559 16.1286 15.744 15H18.131C17.3755 16.4239 16.1825 17.5674 14.728 18.262Z" fill="white"></path></svg> -->




<svg class="MuiSvgIcon-root MuiSvgIcon-fontSizeMedium mui-vubbuv" focusable="false" aria-hidden="true" viewBox="0 0 24 24" data-testid="image:language-icon" fill="currentColor" height="24" width="24" xmlns="http://www.w3.org/2000/svg"><path d="M11.5 2C9.62108 2 7.78435 2.55717 6.22209 3.60104C4.65982 4.64491 3.44218 6.12861 2.72315 7.86451C2.00412 9.60041 1.81598 11.5105 2.18254 13.3534C2.5491 15.1962 3.45389 16.8889 4.78249 18.2175C6.11109 19.5461 7.80383 20.4509 9.64665 20.8175C11.4895 21.184 13.3996 20.9959 15.1355 20.2769C16.8714 19.5578 18.3551 18.3402 19.399 16.7779C20.4428 15.2157 21 13.3789 21 11.5C21 8.98044 19.9991 6.56408 18.2175 4.78249C16.4359 3.00089 14.0196 2 11.5 2ZM15.888 10H18.849C19.1216 11.3343 19.023 12.7178 18.564 14H15.888C15.9629 13.336 16.0003 12.6682 16 12C16.0003 11.3318 15.9629 10.664 15.888 10ZM18.564 9H15.744C15.5062 7.34122 14.8738 5.76373 13.9 4.4C14.9744 4.76457 15.9523 5.36787 16.7601 6.16458C17.5679 6.9613 18.1846 7.93071 18.564 9ZM13.283 18.778C12.8616 18.8818 12.432 18.9487 11.999 18.978V15H14.725C14.5091 16.3449 14.0186 17.6309 13.284 18.778H13.283ZM9.716 18.778C8.98108 17.631 8.49022 16.345 8.274 15H11V18.975C10.5671 18.9467 10.1375 18.8808 9.716 18.778ZM14.726 9H12V4.094C13.154 4.527 14.237 6.413 14.726 9ZM11 4.094V9H8.274C8.763 6.413 9.846 4.527 11 4.094ZM11 10V14H8.119C7.96032 12.6714 7.96032 11.3286 8.119 10H11ZM12 14V10H14.881C14.9607 10.6637 15.0005 11.3315 15 12C15.0005 12.6685 14.9607 13.3363 14.881 14H12ZM9.1 4.4C8.12618 5.76373 7.49381 7.34122 7.256 9H4.436C4.81538 7.93071 5.43214 6.9613 6.23994 6.16458C7.04774 5.36787 8.02558 4.76457 9.1 4.4ZM7.112 14H4.436C3.97699 12.7178 3.87842 11.3343 4.151 10H7.112C6.96332 11.3292 6.96332 12.6708 7.112 14ZM4.869 15H7.256C7.44408 16.1286 7.78593 17.2262 8.272 18.262C6.81746 17.5674 5.62453 16.4239 4.869 15ZM14.728 18.262C15.2141 17.2262 15.5559 16.1286 15.744 15H18.131C17.3755 16.4239 16.1825 17.5674 14.728 18.262Z" fill=""></path></svg>